STARTFONT 2.1
FONT -Bitstream-Charter-Medium-R-Normal--25-240-75-75-P-139-ISO8859-15
SIZE 24 75 75
FONTBOUNDINGBOX 25 30 -2 -6

STARTPROPERTIES 25
FONTNAME_REGISTRY ""
FAMILY_NAME "Charter"
FOUNDRY "Bitstream"
WEIGHT_NAME "Medium"
SETWIDTH_NAME "Normal"
SLANT "R"
ADD_STYLE_NAME ""
PIXEL_SIZE 25
POINT_SIZE 240
RESOLUTION_X 75
RESOLUTION_Y 75
SPACING "P"
AVERAGE_WIDTH 139
CHARSET_REGISTRY "ISO8859"
CHARSET_ENCODING "15"
CAP_HEIGHT 17
X_HEIGHT 12
CHARSET_COLLECTIONS "ASCII ISOLATIN1"
FACE_NAME "Bitstream Charter Roman"
COPYRIGHT "Copyright 1987 by Bitstream Inc. Charter Registered trademark of Bitstream Inc."
WEIGHT 10
QUAD_WIDTH 15
DEFAULT_CHAR 0
FONT_DESCENT 6
FONT_ASCENT 24
ENDPROPERTIES

CHARS 191

STARTCHAR space
ENCODING 32
SWIDTH 278 0
DWIDTH 7 0
BBX 1 1 0 0
BITMAP
00
ENDCHAR

STARTCHAR exclam
ENCODING 33
SWIDTH 338 0
DWIDTH 8 0
BBX 3 17 3 0
BITMAP
E0
E0
E0
E0
E0
E0
E0
E0
40
40
40
40
00
00
E0
E0
E0
ENDCHAR

STARTCHAR quotedbl
ENCODING 34
SWIDTH 331 0
DWIDTH 8 0
BBX 6 7 1 11
BITMAP
CC
CC
CC
CC
CC
44
44
ENDCHAR

STARTCHAR numbersign
ENCODING 35
SWIDTH 745 0
DWIDTH 19 0
BBX 16 18 1 0
BITMAP
0084
0184
010C
0108
0308
0218
7FFF
0630
0430
0420
0C20
FFFE
0840
10C0
1080
3080
2180
2100
ENDCHAR

STARTCHAR dollar
ENCODING 36
SWIDTH 556 0
DWIDTH 14 0
BBX 12 22 1 -3
BITMAP
0400
0400
1FE0
7460
6420
C420
C400
C400
F400
7C00
3FC0
07E0
04F0
0430
8430
8430
8460
C4E0
FF80
0400
0400
0400
ENDCHAR

STARTCHAR percent
ENCODING 37
SWIDTH 852 0
DWIDTH 21 0
BBX 20 18 1 0
BITMAP
3C0300
660200
420600
C30400
C30C00
C31800
C31000
C333C0
422660
664420
3CCC30
008C30
018C30
010C30
020C30
060420
040660
0C03C0
ENDCHAR

STARTCHAR ampersand
ENCODING 38
SWIDTH 704 0
DWIDTH 18 0
BBX 16 17 1 0
BITMAP
1F00
3180
60C0
60C0
60C0
70C0
3980
1E00
3E3F
670C
C388
C1D8
C0F0
C070
E070
70F8
3F1F
ENDCHAR

STARTCHAR quoteright
ENCODING 39
SWIDTH 201 0
DWIDTH 5 0
BBX 3 7 1 11
BITMAP
40
E0
E0
20
20
40
C0
ENDCHAR

STARTCHAR parenleft
ENCODING 40
SWIDTH 417 0
DWIDTH 10 0
BBX 7 22 2 -4
BITMAP
06
1C
30
30
60
60
C0
C0
C0
C0
C0
C0
C0
C0
C0
C0
60
60
30
30
1C
06
ENDCHAR

STARTCHAR parenright
ENCODING 41
SWIDTH 417 0
DWIDTH 10 0
BBX 7 22 1 -4
BITMAP
C0
70
18
18
0C
0C
06
06
06
06
06
06
06
06
06
06
0C
0C
08
18
70
C0
ENDCHAR

STARTCHAR asterisk
ENCODING 42
SWIDTH 500 0
DWIDTH 12 0
BBX 10 10 1 8
BITMAP
0400
0C00
0C00
4C80
F5C0
0E00
0C00
1200
3300
2100
ENDCHAR

STARTCHAR plus
ENCODING 43
SWIDTH 833 0
DWIDTH 21 0
BBX 15 15 3 0
BITMAP
0100
0100
0100
0100
0100
0100
0100
FFFE
0100
0100
0100
0100
0100
0100
0100
ENDCHAR

STARTCHAR comma
ENCODING 44
SWIDTH 278 0
DWIDTH 7 0
BBX 4 7 1 -4
BITMAP
60
70
70
10
10
20
C0
ENDCHAR

STARTCHAR hyphen
ENCODING 45
SWIDTH 319 0
DWIDTH 8 0
BBX 6 1 1 5
BITMAP
FC
ENDCHAR

STARTCHAR period
ENCODING 46
SWIDTH 278 0
DWIDTH 7 0
BBX 3 3 2 0
BITMAP
E0
E0
E0
ENDCHAR

STARTCHAR slash
ENCODING 47
SWIDTH 481 0
DWIDTH 12 0
BBX 12 19 -1 -2
BITMAP
0030
0020
0060
0040
00C0
0180
0100
0300
0200
0600
0400
0C00
0800
1800
1000
2000
6000
4000
C000
ENDCHAR

STARTCHAR zero
ENCODING 48
SWIDTH 556 0
DWIDTH 14 0
BBX 12 17 1 0
BITMAP
1F80
30C0
6060
6060
C030
C030
C030
C030
C030
C030
C030
C030
C030
6060
6060
30C0
1F80
ENDCHAR

STARTCHAR one
ENCODING 49
SWIDTH 556 0
DWIDTH 14 0
BBX 8 17 3 0
BITMAP
0C
7C
EC
0C
0C
0C
0C
0C
0C
0C
0C
0C
0C
0C
0C
0C
7F
ENDCHAR

STARTCHAR two
ENCODING 50
SWIDTH 556 0
DWIDTH 14 0
BBX 12 17 1 0
BITMAP
3F80
41C0
C0E0
C060
C060
0060
0060
00C0
01C0
0180
0700
0E00
1800
3030
4030
FFF0
FFF0
ENDCHAR

STARTCHAR three
ENCODING 51
SWIDTH 556 0
DWIDTH 14 0
BBX 12 17 1 0
BITMAP
3F80
40E0
C060
C060
0060
0060
01C0
1F00
1FC0
00E0
0070
0030
0030
C030
C060
E1E0
7F80
ENDCHAR

STARTCHAR four
ENCODING 52
SWIDTH 556 0
DWIDTH 14 0
BBX 13 18 1 -1
BITMAP
00C0
01C0
01C0
03C0
06C0
0CC0
18C0
18C0
30C0
60C0
C0C0
FFF8
00C0
00C0
00C0
00C0
00C0
00C0
ENDCHAR

STARTCHAR five
ENCODING 53
SWIDTH 556 0
DWIDTH 14 0
BBX 12 17 1 0
BITMAP
3FE0
3FE0
3000
3000
3000
3000
3000
3FC0
00E0
0070
0030
0030
0030
2030
F060
70C0
3F80
ENDCHAR

STARTCHAR six
ENCODING 54
SWIDTH 556 0
DWIDTH 14 0
BBX 12 18 1 0
BITMAP
01C0
0E00
1800
3000
7000
6000
6000
DFC0
E0E0
C060
C030
C030
C030
C030
6030
6060
30C0
1F80
ENDCHAR

STARTCHAR seven
ENCODING 55
SWIDTH 556 0
DWIDTH 14 0
BBX 12 18 1 -1
BITMAP
FFF0
FFF0
C060
8060
00C0
00C0
0180
0180
0300
0300
0600
0400
0C00
0800
1800
1000
3000
6000
ENDCHAR

STARTCHAR eight
ENCODING 56
SWIDTH 556 0
DWIDTH 14 0
BBX 12 17 1 0
BITMAP
1F80
38C0
6060
6060
6060
7060
7840
3EC0
1F80
61E0
4070
C030
C030
C030
6060
70E0
1F80
ENDCHAR

STARTCHAR nine
ENCODING 57
SWIDTH 556 0
DWIDTH 14 0
BBX 12 18 1 -1
BITMAP
1F80
30E0
6060
C030
C030
C030
C030
C030
E030
7070
3FE0
0060
00C0
0180
0700
0E00
3800
6000
ENDCHAR

STARTCHAR colon
ENCODING 58
SWIDTH 319 0
DWIDTH 8 0
BBX 3 12 3 0
BITMAP
E0
E0
E0
00
00
00
00
00
00
E0
E0
E0
ENDCHAR

STARTCHAR semicolon
ENCODING 59
SWIDTH 319 0
DWIDTH 8 0
BBX 4 16 2 -4
BITMAP
70
70
70
00
00
00
00
00
00
60
70
70
10
10
20
C0
ENDCHAR

STARTCHAR less
ENCODING 60
SWIDTH 833 0
DWIDTH 21 0
BBX 14 13 3 1
BITMAP
0004
003C
00F0
0380
1E00
7800
C000
7800
1E00
0380
00F0
003C
0004
ENDCHAR

STARTCHAR equal
ENCODING 61
SWIDTH 833 0
DWIDTH 21 0
BBX 15 5 3 5
BITMAP
FFFE
0000
0000
0000
FFFE
ENDCHAR

STARTCHAR greater
ENCODING 62
SWIDTH 833 0
DWIDTH 21 0
BBX 14 13 4 1
BITMAP
8000
F000
3C00
0700
01E0
0078
000C
0078
01E0
0700
3C00
F000
8000
ENDCHAR

STARTCHAR question
ENCODING 63
SWIDTH 486 0
DWIDTH 12 0
BBX 9 17 1 0
BITMAP
7E00
E700
C180
0180
0180
0180
0300
0600
1C00
1000
1000
1000
0000
0000
3800
3800
3800
ENDCHAR

STARTCHAR at
ENCODING 64
SWIDTH 942 0
DWIDTH 23 0
BBX 19 21 2 -4
BITMAP
00FC00
070300
0C0080
180040
300040
207E20
618E20
630C20
C30C20
C60C20
C60C20
C60C40
C61840
C73880
63CF00
618E00
600000
300000
180080
0E0300
03FC00
ENDCHAR

STARTCHAR A
ENCODING 65
SWIDTH 639 0
DWIDTH 16 0
BBX 16 17 0 0
BITMAP
0180
03C0
03C0
02C0
06E0
0660
0460
0C70
0C30
0830
1FF8
1018
1018
300C
200C
600E
F81F
ENDCHAR

STARTCHAR B
ENCODING 66
SWIDTH 604 0
DWIDTH 15 0
BBX 13 17 1 0
BITMAP
FFC0
30E0
3070
3030
3030
3030
3070
30E0
3FC0
3070
3038
3018
3018
3018
3038
3070
FFC0
ENDCHAR

STARTCHAR C
ENCODING 67
SWIDTH 632 0
DWIDTH 16 0
BBX 14 17 1 0
BITMAP
07F8
1C0C
3004
7004
6000
C000
C000
C000
C000
C000
C000
E000
6004
7004
3804
1C0C
07F8
ENDCHAR

STARTCHAR D
ENCODING 68
SWIDTH 694 0
DWIDTH 17 0
BBX 15 17 1 0
BITMAP
FFC0
3070
3018
300C
300C
3006
3006
3006
3006
3006
3006
3006
300C
300C
3018
3070
FFC0
ENDCHAR

STARTCHAR E
ENCODING 69
SWIDTH 576 0
DWIDTH 14 0
BBX 12 17 1 0
BITMAP
FFE0
3060
3060
3020
3000
3000
3080
3080
3F80
3080
3080
3000
3000
3010
3030
3030
FFF0
ENDCHAR

STARTCHAR F
ENCODING 70
SWIDTH 537 0
DWIDTH 13 0
BBX 11 17 1 0
BITMAP
FFE0
3020
3020
3020
3000
3000
3040
3040
3FC0
3040
3040
3000
3000
3000
3000
3000
FC00
ENDCHAR

STARTCHAR G
ENCODING 71
SWIDTH 694 0
DWIDTH 17 0
BBX 15 17 1 0
BITMAP
07F8
3C18
7018
6008
6000
C000
C000
C000
C000
C07E
C018
C018
6018
6018
3018
1C18
07F0
ENDCHAR

STARTCHAR H
ENCODING 72
SWIDTH 738 0
DWIDTH 18 0
BBX 16 17 1 0
BITMAP
FC3F
300C
300C
300C
300C
300C
300C
300C
3FFC
300C
300C
300C
300C
300C
300C
300C
FC3F
ENDCHAR

STARTCHAR I
ENCODING 73
SWIDTH 324 0
DWIDTH 8 0
BBX 6 17 1 0
BITMAP
FC
30
30
30
30
30
30
30
30
30
30
30
30
30
30
30
FC
ENDCHAR

STARTCHAR J
ENCODING 74
SWIDTH 444 0
DWIDTH 11 0
BBX 10 17 0 0
BITMAP
0FC0
0300
0300
0300
0300
0300
0300
0300
0300
0300
0300
0300
8300
8300
8600
CE00
FC00
ENDCHAR

STARTCHAR K
ENCODING 75
SWIDTH 611 0
DWIDTH 16 0
BBX 15 17 1 0
BITMAP
FC7C
3010
3030
3060
30C0
3180
3100
3200
3F00
3380
3180
31C0
30E0
3060
3030
3038
FC1E
ENDCHAR

STARTCHAR L
ENCODING 76
SWIDTH 520 0
DWIDTH 13 0
BBX 12 17 1 0
BITMAP
FC00
3000
3000
3000
3000
3000
3000
3000
3000
3000
3000
3000
3010
3030
3030
3030
FFF0
ENDCHAR

STARTCHAR M
ENCODING 77
SWIDTH 866 0
DWIDTH 22 0
BBX 20 17 1 0
BITMAP
F801F0
3803C0
3C03C0
2C02C0
2C06C0
2604C0
2604C0
270CC0
2308C0
2318C0
2390C0
2190C0
21B0C0
20E0C0
20E0C0
20E0C0
F843F0
ENDCHAR

STARTCHAR N
ENCODING 78
SWIDTH 713 0
DWIDTH 18 0
BBX 16 17 1 0
BITMAP
F01F
3804
3C04
2C04
2E04
2704
2304
2384
21C4
20C4
20E4
2074
2034
203C
201C
200C
F80C
ENDCHAR

STARTCHAR O
ENCODING 79
SWIDTH 731 0
DWIDTH 18 0
BBX 16 17 1 0
BITMAP
07E0
3C3C
300C
6006
6006
C003
C003
C003
C003
C003
C003
C003
6006
6006
300C
1C38
07E0
ENDCHAR

STARTCHAR P
ENCODING 80
SWIDTH 558 0
DWIDTH 14 0
BBX 12 17 1 0
BITMAP
FF80
31E0
3060
3030
3030
3030
3030
3030
3060
30E0
3F80
3000
3000
3000
3000
3000
FC00
ENDCHAR

STARTCHAR Q
ENCODING 81
SWIDTH 731 0
DWIDTH 18 0
BBX 16 21 1 -4
BITMAP
07E0
3C3C
300C
6006
6006
C003
C003
C003
C003
C003
C003
C003
6006
6006
300C
3C3C
07F0
0180
01C0
01E0
007E
ENDCHAR

STARTCHAR R
ENCODING 82
SWIDTH 646 0
DWIDTH 16 0
BBX 15 17 1 0
BITMAP
FFC0
30E0
3070
3030
3030
3030
3030
30E0
3F80
30C0
3060
3060
3020
3030
3030
3038
FC1E
ENDCHAR

STARTCHAR S
ENCODING 83
SWIDTH 556 0
DWIDTH 14 0
BBX 12 17 1 0
BITMAP
3FE0
7060
E020
C020
C000
E000
F000
7E00
3FC0
07E0
00E0
0030
8030
8030
8060
C0E0
FF80
ENDCHAR

STARTCHAR T
ENCODING 84
SWIDTH 597 0
DWIDTH 15 0
BBX 14 17 1 0
BITMAP
FFFC
C30C
C30C
8304
0300
0300
0300
0300
0300
0300
0300
0300
0300
0300
0300
0300
0FC0
ENDCHAR

STARTCHAR U
ENCODING 85
SWIDTH 694 0
DWIDTH 17 0
BBX 15 17 1 0
BITMAP
FC7E
3018
3018
3018
3018
3018
3018
3018
3018
3018
3018
3018
3018
3018
3830
1C70
0FC0
ENDCHAR

STARTCHAR V
ENCODING 86
SWIDTH 618 0
DWIDTH 15 0
BBX 16 17 -1 0
BITMAP
F81F
3004
3004
380C
1808
1808
1C18
0C10
0C10
0E30
0620
0760
0760
0340
03C0
03C0
0180
ENDCHAR

STARTCHAR W
ENCODING 87
SWIDTH 928 0
DWIDTH 23 0
BBX 23 17 0 0
BITMAP
FC183E
301C08
301C08
383C08
183E18
182618
182610
1C6610
0C4310
0C4330
0EC320
0EC3A0
0681A0
0781E0
0781E0
0300C0
0300C0
ENDCHAR

STARTCHAR X
ENCODING 88
SWIDTH 600 0
DWIDTH 15 0
BBX 15 17 0 0
BITMAP
FC3E
3818
1810
1C30
0E60
0640
07C0
0380
0380
03C0
06C0
0CE0
0860
1870
3038
2018
F87E
ENDCHAR

STARTCHAR Y
ENCODING 89
SWIDTH 586 0
DWIDTH 15 0
BBX 16 17 0 0
BITMAP
FC1F
300C
380C
1C18
0C10
0E30
0660
0740
03C0
0180
0180
0180
0180
0180
0180
0180
07E0
ENDCHAR

STARTCHAR Z
ENCODING 90
SWIDTH 586 0
DWIDTH 15 0
BBX 13 17 1 0
BITMAP
7FF8
4030
4070
40E0
00C0
01C0
0380
0380
0700
0E00
0E00
1C00
3800
3818
7018
E018
FFF8
ENDCHAR

STARTCHAR bracketleft
ENCODING 91
SWIDTH 421 0
DWIDTH 10 0
BBX 6 21 3 -3
BITMAP
FC
C0
C0
C0
C0
C0
C0
C0
C0
C0
C0
C0
C0
C0
C0
C0
C0
C0
C0
C0
FC
ENDCHAR

STARTCHAR backslash
ENCODING 92
SWIDTH 481 0
DWIDTH 12 0
BBX 12 19 0 -2
BITMAP
C000
6000
2000
3000
1000
1800
0800
0C00
0400
0600
0200
0100
0100
0080
00C0
0040
0060
0020
0030
ENDCHAR

STARTCHAR bracketright
ENCODING 93
SWIDTH 421 0
DWIDTH 10 0
BBX 6 21 1 -3
BITMAP
FC
0C
0C
0C
0C
0C
0C
0C
0C
0C
0C
0C
0C
0C
0C
0C
0C
0C
0C
0C
FC
ENDCHAR

STARTCHAR asciicircum
ENCODING 94
SWIDTH 1000 0
DWIDTH 25 0
BBX 15 7 5 11
BITMAP
0380
07C0
0C60
1830
3018
600C
C006
ENDCHAR

STARTCHAR underscore
ENCODING 95
SWIDTH 500 0
DWIDTH 12 0
BBX 12 1 0 -6
BITMAP
FFF0
ENDCHAR

STARTCHAR quoteleft
ENCODING 96
SWIDTH 201 0
DWIDTH 5 0
BBX 3 7 1 11
BITMAP
60
40
80
80
E0
E0
60
ENDCHAR

STARTCHAR a
ENCODING 97
SWIDTH 507 0
DWIDTH 13 0
BBX 12 12 1 0
BITMAP
1F80
61C0
60C0
00C0
03C0
1CC0
60C0
C0C0
C0C0
C0C0
E3C0
7CF0
ENDCHAR

STARTCHAR b
ENCODING 98
SWIDTH 539 0
DWIDTH 13 0
BBX 12 18 0 0
BITMAP
3000
F000
3000
3000
3000
3000
3FC0
30E0
3060
3030
3030
3030
3030
3030
3030
3060
30C0
3F80
ENDCHAR

STARTCHAR c
ENCODING 99
SWIDTH 446 0
DWIDTH 11 0
BBX 9 12 1 0
BITMAP
1E00
3380
6380
4380
C000
C000
C000
C000
C000
6000
7080
3F00
ENDCHAR

STARTCHAR d
ENCODING 100
SWIDTH 565 0
DWIDTH 13 0
BBX 12 18 1 0
BITMAP
00C0
03C0
00C0
00C0
00C0
00C0
0FC0
30C0
60C0
40C0
C0C0
C0C0
C0C0
C0C0
E0C0
60C0
7BC0
3EF0
ENDCHAR

STARTCHAR e
ENCODING 101
SWIDTH 491 0
DWIDTH 12 0
BBX 10 12 1 0
BITMAP
1F00
3180
60C0
40C0
C0C0
FFC0
C000
C000
C000
6000
7040
1F80
ENDCHAR

STARTCHAR f
ENCODING 102
SWIDTH 321 0
DWIDTH 8 0
BBX 8 18 1 0
BITMAP
07
1B
10
30
30
30
FE
30
30
30
30
30
30
30
30
30
30
FC
ENDCHAR

STARTCHAR g
ENCODING 103
SWIDTH 523 0
DWIDTH 13 0
BBX 12 18 1 -6
BITMAP
1F00
31F0
60C0
60C0
60C0
60C0
3180
1F00
1800
1800
1E00
1FC0
21E0
6060
C060
E060
70C0
3F00
ENDCHAR

STARTCHAR h
ENCODING 104
SWIDTH 564 0
DWIDTH 14 0
BBX 13 18 1 0
BITMAP
3000
F000
3000
3000
3000
3000
3180
37C0
3860
3060
3060
3060
3060
3060
3060
3060
3060
FCF8
ENDCHAR

STARTCHAR i
ENCODING 105
SWIDTH 280 0
DWIDTH 7 0
BBX 6 18 1 0
BITMAP
30
38
30
00
00
00
30
F0
30
30
30
30
30
30
30
30
30
FC
ENDCHAR

STARTCHAR j
ENCODING 106
SWIDTH 266 0
DWIDTH 7 0
BBX 7 24 -2 -6
BITMAP
06
0E
06
00
00
00
06
1E
06
06
06
06
06
06
06
06
06
06
06
06
06
84
EC
F0
ENDCHAR

STARTCHAR k
ENCODING 107
SWIDTH 518 0
DWIDTH 13 0
BBX 12 18 1 0
BITMAP
3000
F000
3000
3000
3000
3000
31E0
30C0
3180
3300
3200
3E00
3300
3380
3180
30C0
30C0
FC70
ENDCHAR

STARTCHAR l
ENCODING 108
SWIDTH 282 0
DWIDTH 7 0
BBX 6 18 1 0
BITMAP
30
F0
30
30
30
30
30
30
30
30
30
30
30
30
30
30
30
FC
ENDCHAR

STARTCHAR m
ENCODING 109
SWIDTH 843 0
DWIDTH 21 0
BBX 20 12 1 0
BITMAP
33C700
FFDF80
3060C0
3060C0
3060C0
3060C0
3060C0
3060C0
3060C0
3060C0
3060C0
FCF9F0
ENDCHAR

STARTCHAR n
ENCODING 110
SWIDTH 569 0
DWIDTH 14 0
BBX 13 12 1 0
BITMAP
33C0
FFE0
3060
3060
3060
3060
3060
3060
3060
3060
3060
FCF8
ENDCHAR

STARTCHAR o
ENCODING 111
SWIDTH 539 0
DWIDTH 13 0
BBX 11 12 1 0
BITMAP
1F00
3180
60C0
C060
C060
C060
C060
C060
C060
60C0
3180
1F00
ENDCHAR

STARTCHAR p
ENCODING 112
SWIDTH 551 0
DWIDTH 14 0
BBX 12 18 1 -6
BITMAP
3380
FFE0
3060
3070
3030
3030
3030
3030
3030
3060
30C0
3F80
3000
3000
3000
3000
3000
FC00
ENDCHAR

STARTCHAR q
ENCODING 113
SWIDTH 531 0
DWIDTH 13 0
BBX 12 18 1 -6
BITMAP
0FC0
30C0
60C0
40C0
C0C0
C0C0
C0C0
C0C0
C0C0
60C0
70C0
3FC0
00C0
00C0
00C0
00C0
00C0
03F0
ENDCHAR

STARTCHAR r
ENCODING 114
SWIDTH 382 0
DWIDTH 10 0
BBX 9 12 1 0
BITMAP
3380
F780
3880
3000
3000
3000
3000
3000
3000
3000
3000
FC00
ENDCHAR

STARTCHAR s
ENCODING 115
SWIDTH 400 0
DWIDTH 10 0
BBX 8 12 1 0
BITMAP
3F
63
C3
C0
E0
7C
1E
07
83
83
86
FC
ENDCHAR

STARTCHAR t
ENCODING 116
SWIDTH 335 0
DWIDTH 8 0
BBX 8 15 0 0
BITMAP
10
10
30
FF
30
30
30
30
30
30
30
30
30
38
1F
ENDCHAR

STARTCHAR u
ENCODING 117
SWIDTH 569 0
DWIDTH 14 0
BBX 13 12 1 0
BITMAP
3060
F1E0
3060
3060
3060
3060
3060
3060
3060
3060
38E0
1F78
ENDCHAR

STARTCHAR v
ENCODING 118
SWIDTH 494 0
DWIDTH 13 0
BBX 13 12 0 0
BITMAP
FCF8
3020
3020
1860
1840
18C0
0C80
0C80
0500
0700
0700
0200
ENDCHAR

STARTCHAR w
ENCODING 119
SWIDTH 771 0
DWIDTH 19 0
BBX 19 12 0 0
BITMAP
F841E0
60E0C0
20E080
30E180
31B180
313100
193300
1B1B00
1A1A00
1E1E00
0E0E00
0C0C00
ENDCHAR

STARTCHAR x
ENCODING 120
SWIDTH 504 0
DWIDTH 13 0
BBX 13 12 0 0
BITMAP
FCF0
3860
18C0
1C80
0F00
0700
0700
0F80
19C0
10C0
20E0
F9F8
ENDCHAR

STARTCHAR y
ENCODING 121
SWIDTH 495 0
DWIDTH 13 0
BBX 13 18 0 -6
BITMAP
FC78
3020
3020
3860
1840
1840
1CC0
0C80
0D80
0700
0700
0700
0200
0200
0400
0400
6800
7000
ENDCHAR

STARTCHAR z
ENCODING 122
SWIDTH 468 0
DWIDTH 12 0
BBX 10 12 1 0
BITMAP
FFC0
C180
C300
0700
0600
0C00
1C00
3800
3040
7040
E0C0
FFC0
ENDCHAR

STARTCHAR braceleft
ENCODING 123
SWIDTH 486 0
DWIDTH 12 0
BBX 9 20 1 -3
BITMAP
0380
0600
0C00
0C00
0C00
0C00
0C00
0C00
1800
E000
1800
0C00
0C00
0C00
0C00
0C00
0C00
0C00
0600
0380
ENDCHAR

STARTCHAR bar
ENCODING 124
SWIDTH 500 0
DWIDTH 12 0
BBX 1 25 6 -6
BITMAP
80
80
80
80
80
80
80
80
80
80
80
80
80
80
80
80
80
80
80
80
80
80
80
80
80
ENDCHAR

STARTCHAR braceright
ENCODING 125
SWIDTH 486 0
DWIDTH 12 0
BBX 9 20 1 -3
BITMAP
E000
3000
1800
1800
1800
1800
1800
1800
0C00
0380
0C00
1800
1800
1800
1800
1800
1800
1800
3000
E000
ENDCHAR

STARTCHAR c0126
ENCODING 126
SWIDTH 1000 0
DWIDTH 25 0
BBX 15 2 5 14
BITMAP
3F06
C1F8
ENDCHAR

STARTCHAR space
ENCODING 160
SWIDTH 278 0
DWIDTH 7 0
BBX 1 1 0 0
BITMAP
00
ENDCHAR

STARTCHAR exclamdown
ENCODING 161
SWIDTH 338 0
DWIDTH 8 0
BBX 3 17 3 0
BITMAP
E0
E0
E0
00
00
40
40
40
40
60
E0
E0
E0
E0
E0
E0
E0
ENDCHAR

STARTCHAR cent
ENCODING 162
SWIDTH 556 0
DWIDTH 14 0
BBX 11 17 1 -2
BITMAP
0400
0400
0400
1FE0
3460
6460
6460
C400
C400
C400
C400
C460
6460
3460
1FE0
0400
0400
ENDCHAR

STARTCHAR sterling
ENCODING 163
SWIDTH 556 0
DWIDTH 14 0
BBX 12 17 1 0
BITMAP
03E0
0E30
0C30
1820
1800
1800
1800
1800
7FC0
1800
1800
1800
1800
1000
2000
FFF0
FFF0
ENDCHAR

STARTCHAR EuroSign
ENCODING 164
SWIDTH 500 0
DWIDTH 12 0
BBX 13 16 -1 0
BITMAP
03F0
0C18
0808
1808
3000
3000
FFE0
3000
FFC0
3000
3000
3000
1808
1810
0C20
07C0
ENDCHAR

STARTCHAR yen
ENCODING 165
SWIDTH 556 0
DWIDTH 14 0
BBX 14 17 0 0
BITMAP
F87C
3018
3010
1820
1860
0C40
7CF8
0680
0780
0300
7FF8
0300
0300
0300
0300
0300
0FC0
ENDCHAR

STARTCHAR Scaron
ENCODING 166
SWIDTH 556 0
DWIDTH 14 0
BBX 12 23 1 0
BITMAP
18C0
0880
0D80
0500
0700
0000
3FE0
7060
E020
C020
C000
E000
F000
7E00
3FC0
07E0
00E0
0030
8030
8030
8060
C0E0
FF80
ENDCHAR

STARTCHAR section
ENCODING 167
SWIDTH 500 0
DWIDTH 12 0
BBX 10 22 1 -4
BITMAP
1F80
6180
6080
E080
6000
7800
3E00
3F00
6380
C1C0
C0C0
C0C0
E080
7180
3E00
0F00
0380
0180
40C0
4180
6180
7E00
ENDCHAR

STARTCHAR scaron
ENCODING 168
SWIDTH 400 0
DWIDTH 10 0
BBX 8 18 1 0
BITMAP
63
22
36
14
1C
00
3F
63
C3
C0
E0
7C
1E
07
83
83
86
FC
ENDCHAR

STARTCHAR copyright
ENCODING 169
SWIDTH 900 0
DWIDTH 22 0
BBX 19 19 2 -1
BITMAP
01F800
060600
180100
300080
21FCC0
430440
460440
8C0020
8C0020
8C0020
8C0020
8C0020
460440
430440
21FCC0
300180
180100
060600
01F800
ENDCHAR

STARTCHAR ordfeminine
ENCODING 170
SWIDTH 380 0
DWIDTH 9 0
BBX 8 8 1 8
BITMAP
3C
66
06
0E
76
C6
CE
77
ENDCHAR

STARTCHAR guillemotleft
ENCODING 171
SWIDTH 442 0
DWIDTH 11 0
BBX 9 9 1 1
BITMAP
1080
3180
6300
C600
8400
C600
6300
3180
1080
ENDCHAR

STARTCHAR logicalnot
ENCODING 172
SWIDTH 833 0
DWIDTH 21 0
BBX 15 6 3 4
BITMAP
FFFE
0002
0002
0002
0002
0002
ENDCHAR

STARTCHAR hyphen
ENCODING 173
SWIDTH 319 0
DWIDTH 8 0
BBX 6 1 1 5
BITMAP
FC
ENDCHAR

STARTCHAR registered
ENCODING 174
SWIDTH 900 0
DWIDTH 22 0
BBX 19 19 2 -1
BITMAP
01F800
0E0600
180300
300080
67F8C0
431C40
430C40
830C20
831820
83E020
831820
831820
430C60
430C40
67C7C0
200080
180300
0E0600
01F800
ENDCHAR

STARTCHAR macron
ENCODING 175
SWIDTH 500 0
DWIDTH 12 0
BBX 7 2 3 15
BITMAP
FE
FE
ENDCHAR

STARTCHAR degree
ENCODING 176
SWIDTH 329 0
DWIDTH 8 0
BBX 7 7 1 11
BITMAP
38
44
82
82
82
44
38
ENDCHAR

STARTCHAR plusminus
ENCODING 177
SWIDTH 833 0
DWIDTH 21 0
BBX 15 13 3 1
BITMAP
0100
0100
0100
0100
FFFE
0100
0100
0100
0100
0000
0000
0000
FFFE
ENDCHAR

STARTCHAR twosuperior
ENCODING 178
SWIDTH 367 0
DWIDTH 9 0
BBX 7 11 1 7
BITMAP
7C
86
82
02
02
04
0C
30
60
82
FE
ENDCHAR

STARTCHAR threesuperior
ENCODING 179
SWIDTH 367 0
DWIDTH 9 0
BBX 7 11 1 7
BITMAP
7C
84
86
06
0C
38
06
02
82
84
78
ENDCHAR

STARTCHAR Zcaron
ENCODING 180
SWIDTH 586 0
DWIDTH 15 0
BBX 13 23 1 0
BITMAP
18C0
0880
0D80
0500
0700
0000
7FF8
4030
4070
40E0
00C0
01C0
0380
0380
0700
0E00
0E00
1C00
3800
3818
7018
E018
FFF8
ENDCHAR

STARTCHAR mu
ENCODING 181
SWIDTH 548 0
DWIDTH 14 0
BBX 15 16 -1 -5
BITMAP
1830
1830
1830
1830
1020
3060
3060
3062
30E4
79E4
6F38
6000
4000
C000
C000
C000
ENDCHAR

STARTCHAR paragraph
ENCODING 182
SWIDTH 484 0
DWIDTH 12 0
BBX 10 19 1 -2
BITMAP
1FC0
7C80
7C80
FC80
FC80
FC80
FC80
7C80
7C80
1C80
0080
0080
0080
0080
0080
0080
0080
0080
0080
ENDCHAR

STARTCHAR periodcentered
ENCODING 183
SWIDTH 278 0
DWIDTH 7 0
BBX 3 3 2 7
BITMAP
E0
E0
E0
ENDCHAR

STARTCHAR zcaron
ENCODING 184
SWIDTH 468 0
DWIDTH 12 0
BBX 10 18 1 0
BITMAP
3180
1100
1B00
0A00
0E00
0000
FFC0
C180
C300
0700
0600
0C00
1C00
3800
3040
7040
E0C0
FFC0
ENDCHAR

STARTCHAR onesuperior
ENCODING 185
SWIDTH 367 0
DWIDTH 9 0
BBX 5 11 2 7
BITMAP
30
D0
10
10
10
10
10
10
10
10
78
ENDCHAR

STARTCHAR ordmasculine
ENCODING 186
SWIDTH 405 0
DWIDTH 10 0
BBX 8 8 1 8
BITMAP
18
66
C3
C3
C3
C3
66
18
ENDCHAR

STARTCHAR guillemotright
ENCODING 187
SWIDTH 442 0
DWIDTH 11 0
BBX 9 9 1 1
BITMAP
8400
C600
6300
3180
1080
3180
6300
C600
8400
ENDCHAR

STARTCHAR Ligature_OE
ENCODING 188
SWIDTH 875 0
DWIDTH 21 0
BBX 19 16 1 0
BITMAP
0FFFC0
18E0C0
206040
606040
606000
C06100
C06100
C07F00
C06100
C06100
C06000
406000
606020
206060
18E0C0
0FFFC0
ENDCHAR

STARTCHAR Ligature_oe
ENCODING 189
SWIDTH 708 0
DWIDTH 17 0
BBX 15 11 1 0
BITMAP
1E38
674C
4386
C186
C1FE
C180
C180
C1C2
61C4
73FC
3E78
ENDCHAR

STARTCHAR Ydiaeresis
ENCODING 190
SWIDTH 586 0
DWIDTH 15 0
BBX 16 22 0 0
BITMAP
0660
0660
0660
0000
0000
FC1F
300C
380C
1C18
0C10
0E30
0660
0740
03C0
0180
0180
0180
0180
0180
0180
0180
07E0
ENDCHAR

STARTCHAR questiondown
ENCODING 191
SWIDTH 486 0
DWIDTH 12 0
BBX 9 17 1 0
BITMAP
0E00
0E00
0E00
0000
0000
0400
0400
0400
1C00
3000
6000
C000
C000
C000
C180
7380
3F00
ENDCHAR

STARTCHAR Agrave
ENCODING 192
SWIDTH 639 0
DWIDTH 16 0
BBX 16 23 0 0
BITMAP
0E00
0600
0300
0100
0180
0000
0180
03C0
03C0
02C0
06E0
0660
0460
0C70
0C30
0830
1FF8
1018
1018
300C
200C
600E
F81F
ENDCHAR

STARTCHAR Aacute
ENCODING 193
SWIDTH 639 0
DWIDTH 16 0
BBX 16 23 0 0
BITMAP
0070
0060
00C0
0080
0180
0000
0180
03C0
03C0
02C0
06E0
0660
0460
0C70
0C30
0830
1FF8
1018
1018
300C
200C
600E
F81F
ENDCHAR

STARTCHAR Acircumflex
ENCODING 194
SWIDTH 639 0
DWIDTH 16 0
BBX 16 23 0 0
BITMAP
01C0
0140
0360
0220
0630
0000
0180
03C0
03C0
02C0
06E0
0660
0460
0C70
0C30
0830
1FF8
1018
1018
300C
200C
600E
F81F
ENDCHAR

STARTCHAR Atilde
ENCODING 195
SWIDTH 639 0
DWIDTH 16 0
BBX 16 23 0 0
BITMAP
0310
07F0
0460
0000
0000
0000
0180
03C0
03C0
02C0
06E0
0660
0460
0C70
0C30
0830
1FF8
1018
1018
300C
200C
600E
F81F
ENDCHAR

STARTCHAR Adieresis
ENCODING 196
SWIDTH 639 0
DWIDTH 16 0
BBX 16 22 0 0
BITMAP
0660
0660
0660
0000
0000
0180
03C0
03C0
02C0
06E0
0660
0460
0C70
0C30
0830
1FF8
1018
1018
300C
200C
600E
F81F
ENDCHAR

STARTCHAR Aring
ENCODING 197
SWIDTH 639 0
DWIDTH 16 0
BBX 16 24 0 0
BITMAP
03C0
0440
0420
0420
0440
03C0
0000
0180
03C0
03C0
02C0
06E0
0660
0460
0C70
0C30
0830
1FF8
1018
1018
300C
200C
600E
F81F
ENDCHAR

STARTCHAR AE
ENCODING 198
SWIDTH 866 0
DWIDTH 22 0
BBX 22 17 -1 0
BITMAP
00FFF8
003C18
002C18
006C08
00CC00
008C00
018C20
030C20
030FE0
060C20
07FC20
0C0C00
180C00
180C04
300C0C
200C0C
F83FFC
ENDCHAR

STARTCHAR Ccedilla
ENCODING 199
SWIDTH 632 0
DWIDTH 16 0
BBX 14 23 1 -6
BITMAP
07F8
1C0C
3004
7004
6000
C000
C000
C000
C000
C000
C000
E000
6004
7004
3804
1C0C
07F8
0100
0100
01C0
0040
0040
0380
ENDCHAR

STARTCHAR Egrave
ENCODING 200
SWIDTH 576 0
DWIDTH 14 0
BBX 12 23 1 0
BITMAP
3800
1800
0C00
0400
0600
0000
FFE0
3060
3060
3020
3000
3000
3080
3080
3F80
3080
3080
3000
3000
3010
3030
3030
FFF0
ENDCHAR

STARTCHAR Eacute
ENCODING 201
SWIDTH 576 0
DWIDTH 14 0
BBX 12 23 1 0
BITMAP
01C0
0180
0300
0200
0600
0000
FFE0
3060
3060
3020
3000
3000
3080
3080
3F80
3080
3080
3000
3000
3010
3030
3030
FFF0
ENDCHAR

STARTCHAR Ecircumflex
ENCODING 202
SWIDTH 576 0
DWIDTH 14 0
BBX 12 23 1 0
BITMAP
0700
0500
0D80
0880
18C0
0000
FFE0
3060
3060
3020
3000
3000
3080
3080
3F80
3080
3080
3000
3000
3010
3030
3030
FFF0
ENDCHAR

STARTCHAR Edieresis
ENCODING 203
SWIDTH 576 0
DWIDTH 14 0
BBX 12 22 1 0
BITMAP
1980
1980
1980
0000
0000
FFE0
3060
3060
3020
3000
3000
3080
3080
3F80
3080
3080
3000
3000
3010
3030
3030
FFF0
ENDCHAR

STARTCHAR Igrave
ENCODING 204
SWIDTH 324 0
DWIDTH 8 0
BBX 7 23 0 0
BITMAP
E0
60
30
10
18
00
7E
18
18
18
18
18
18
18
18
18
18
18
18
18
18
18
7E
ENDCHAR

STARTCHAR Iacute
ENCODING 205
SWIDTH 324 0
DWIDTH 8 0
BBX 7 23 1 0
BITMAP
0E
0C
18
10
30
00
FC
30
30
30
30
30
30
30
30
30
30
30
30
30
30
30
FC
ENDCHAR

STARTCHAR Icircumflex
ENCODING 206
SWIDTH 324 0
DWIDTH 8 0
BBX 7 23 1 0
BITMAP
38
28
6C
44
C6
00
FC
30
30
30
30
30
30
30
30
30
30
30
30
30
30
30
FC
ENDCHAR

STARTCHAR Idieresis
ENCODING 207
SWIDTH 324 0
DWIDTH 8 0
BBX 6 22 1 0
BITMAP
CC
CC
CC
00
00
FC
30
30
30
30
30
30
30
30
30
30
30
30
30
30
30
FC
ENDCHAR

STARTCHAR Eth
ENCODING 208
SWIDTH 694 0
DWIDTH 17 0
BBX 16 17 0 0
BITMAP
7FE0
1838
180C
1806
1806
1803
1803
1803
FF83
1803
1803
1803
1806
1806
180C
1838
7FE0
ENDCHAR

STARTCHAR Ntilde
ENCODING 209
SWIDTH 713 0
DWIDTH 18 0
BBX 16 23 1 0
BITMAP
0310
07F0
0460
0000
0000
0000
F01F
3804
3C04
2C04
2E04
2704
2304
2384
21C4
20C4
20E4
2074
2034
203C
201C
200C
F80C
ENDCHAR

STARTCHAR Ograve
ENCODING 210
SWIDTH 731 0
DWIDTH 18 0
BBX 16 23 1 0
BITMAP
1C00
0C00
0600
0200
0300
0000
07E0
3C3C
300C
6006
6006
C003
C003
C003
C003
C003
C003
C003
6006
6006
300C
1C38
07E0
ENDCHAR

STARTCHAR Oacute
ENCODING 211
SWIDTH 731 0
DWIDTH 18 0
BBX 16 23 1 0
BITMAP
00E0
00C0
0180
0100
0300
0000
07E0
3C3C
300C
6006
6006
C003
C003
C003
C003
C003
C003
C003
6006
6006
300C
1C38
07E0
ENDCHAR

STARTCHAR Ocircumflex
ENCODING 212
SWIDTH 731 0
DWIDTH 18 0
BBX 16 23 1 0
BITMAP
0380
0280
06C0
0440
0C60
0000
07E0
3C3C
300C
6006
6006
C003
C003
C003
C003
C003
C003
C003
6006
6006
300C
1C38
07E0
ENDCHAR

STARTCHAR Otilde
ENCODING 213
SWIDTH 731 0
DWIDTH 18 0
BBX 16 23 1 0
BITMAP
0620
0FE0
08C0
0000
0000
0000
07E0
3C3C
300C
6006
6006
C003
C003
C003
C003
C003
C003
C003
6006
6006
300C
1C38
07E0
ENDCHAR

STARTCHAR Odieresis
ENCODING 214
SWIDTH 731 0
DWIDTH 18 0
BBX 16 22 1 0
BITMAP
0CC0
0CC0
0CC0
0000
0000
07E0
3C3C
300C
6006
6006
C003
C003
C003
C003
C003
C003
C003
6006
6006
300C
1C38
07E0
ENDCHAR

STARTCHAR multiply
ENCODING 215
SWIDTH 833 0
DWIDTH 21 0
BBX 14 14 4 0
BITMAP
4008
E01C
7038
3870
1CE0
0FC0
0780
0780
0FC0
1CE0
3870
7038
E01C
4008
ENDCHAR

STARTCHAR Oslash
ENCODING 216
SWIDTH 731 0
DWIDTH 18 0
BBX 16 21 1 -2
BITMAP
0004
0006
07FC
1C38
301C
6036
6026
C043
C0C3
C083
C183
C303
C203
C603
6C06
6806
380C
3C3C
2FE0
6000
4000
ENDCHAR

STARTCHAR Ugrave
ENCODING 217
SWIDTH 694 0
DWIDTH 17 0
BBX 15 23 1 0
BITMAP
0E00
0600
0300
0100
0180
0000
FC7E
3018
3018
3018
3018
3018
3018
3018
3018
3018
3018
3018
3018
3018
3830
1C70
0FC0
ENDCHAR

STARTCHAR Uacute
ENCODING 218
SWIDTH 694 0
DWIDTH 17 0
BBX 15 23 1 0
BITMAP
0070
0060
00C0
0080
0180
0000
FC7E
3018
3018
3018
3018
3018
3018
3018
3018
3018
3018
3018
3018
3018
3830
1C70
0FC0
ENDCHAR

STARTCHAR Ucircumflex
ENCODING 219
SWIDTH 694 0
DWIDTH 17 0
BBX 15 23 1 0
BITMAP
01C0
0140
0360
0220
0630
0000
FC7E
3018
3018
3018
3018
3018
3018
3018
3018
3018
3018
3018
3018
3018
3830
1C70
0FC0
ENDCHAR

STARTCHAR Udieresis
ENCODING 220
SWIDTH 694 0
DWIDTH 17 0
BBX 15 22 1 0
BITMAP
0660
0660
0660
0000
0000
FC7E
3018
3018
3018
3018
3018
3018
3018
3018
3018
3018
3018
3018
3018
3830
1C70
0FC0
ENDCHAR

STARTCHAR Yacute
ENCODING 221
SWIDTH 586 0
DWIDTH 15 0
BBX 16 23 0 0
BITMAP
00E0
00C0
0180
0100
0300
0000
FC1F
300C
380C
1C18
0C10
0E30
0660
0740
03C0
0180
0180
0180
0180
0180
0180
0180
07E0
ENDCHAR

STARTCHAR Thorn
ENCODING 222
SWIDTH 558 0
DWIDTH 14 0
BBX 12 17 1 0
BITMAP
FC00
3000
3000
3FC0
30E0
3070
3030
3030
3030
3030
3030
3060
30E0
3F80
3000
3000
FC00
ENDCHAR

STARTCHAR germandbls
ENCODING 223
SWIDTH 609 0
DWIDTH 15 0
BBX 14 18 0 0
BITMAP
07C0
0C60
1830
1030
3030
3030
30E0
3180
3180
3180
31C0
30F0
3038
301C
310C
310C
3118
FDF0
ENDCHAR

STARTCHAR agrave
ENCODING 224
SWIDTH 507 0
DWIDTH 13 0
BBX 12 18 1 0
BITMAP
7000
3000
1800
0800
0C00
0000
1F80
61C0
60C0
00C0
03C0
1CC0
60C0
C0C0
C0C0
C0C0
E3C0
7CF0
ENDCHAR

STARTCHAR aacute
ENCODING 225
SWIDTH 507 0
DWIDTH 13 0
BBX 12 18 1 0
BITMAP
0380
0300
0600
0400
0C00
0000
1F80
61C0
60C0
00C0
03C0
1CC0
60C0
C0C0
C0C0
C0C0
E3C0
7CF0
ENDCHAR

STARTCHAR acircumflex
ENCODING 226
SWIDTH 507 0
DWIDTH 13 0
BBX 12 18 1 0
BITMAP
0E00
0A00
1B00
1100
3180
0000
1F80
61C0
60C0
00C0
03C0
1CC0
60C0
C0C0
C0C0
C0C0
E3C0
7CF0
ENDCHAR

STARTCHAR atilde
ENCODING 227
SWIDTH 507 0
DWIDTH 13 0
BBX 12 18 1 0
BITMAP
1880
3F80
2300
0000
0000
0000
1F80
61C0
60C0
00C0
03C0
1CC0
60C0
C0C0
C0C0
C0C0
E3C0
7CF0
ENDCHAR

STARTCHAR adieresis
ENCODING 228
SWIDTH 507 0
DWIDTH 13 0
BBX 12 17 1 0
BITMAP
3300
3300
3300
0000
0000
1F80
61C0
60C0
00C0
03C0
1CC0
60C0
C0C0
C0C0
C0C0
E3C0
7CF0
ENDCHAR

STARTCHAR aring
ENCODING 229
SWIDTH 507 0
DWIDTH 13 0
BBX 12 19 1 0
BITMAP
0E00
1100
3080
3080
1100
0E00
0000
1F80
61C0
60C0
00C0
03C0
1CC0
60C0
C0C0
C0C0
C0C0
E3C0
7CF0
ENDCHAR

STARTCHAR ae
ENCODING 230
SWIDTH 725 0
DWIDTH 18 0
BBX 16 12 1 0
BITMAP
3F3C
63C6
61C3
6183
0183
07FF
3980
6180
C180
C180
C3E1
7C7E
ENDCHAR

STARTCHAR ccedilla
ENCODING 231
SWIDTH 446 0
DWIDTH 11 0
BBX 9 18 1 -6
BITMAP
1E00
3380
6380
4380
C000
C000
C000
C000
C000
6000
7080
3F00
0400
0400
0700
0100
0100
0E00
ENDCHAR

STARTCHAR egrave
ENCODING 232
SWIDTH 491 0
DWIDTH 12 0
BBX 10 18 1 0
BITMAP
7000
3000
1800
0800
0C00
0000
1F00
3180
60C0
40C0
C0C0
FFC0
C000
C000
C000
6000
7040
1F80
ENDCHAR

STARTCHAR eacute
ENCODING 233
SWIDTH 491 0
DWIDTH 12 0
BBX 10 18 1 0
BITMAP
0380
0300
0600
0400
0C00
0000
1F00
3180
60C0
40C0
C0C0
FFC0
C000
C000
C000
6000
7040
1F80
ENDCHAR

STARTCHAR ecircumflex
ENCODING 234
SWIDTH 491 0
DWIDTH 12 0
BBX 10 18 1 0
BITMAP
0E00
0A00
1B00
1100
3180
0000
1F00
3180
60C0
40C0
C0C0
FFC0
C000
C000
C000
6000
7040
1F80
ENDCHAR

STARTCHAR edieresis
ENCODING 235
SWIDTH 491 0
DWIDTH 12 0
BBX 10 17 1 0
BITMAP
3300
3300
3300
0000
0000
1F00
3180
60C0
40C0
C0C0
FFC0
C000
C000
C000
6000
7040
1F80
ENDCHAR

STARTCHAR igrave
ENCODING 236
SWIDTH 280 0
DWIDTH 7 0
BBX 8 18 -1 0
BITMAP
E0
60
30
10
18
00
0C
3C
0C
0C
0C
0C
0C
0C
0C
0C
0C
3F
ENDCHAR

STARTCHAR iacute
ENCODING 237
SWIDTH 280 0
DWIDTH 7 0
BBX 6 18 1 0
BITMAP
1C
18
30
20
60
00
30
F0
30
30
30
30
30
30
30
30
30
FC
ENDCHAR

STARTCHAR icircumflex
ENCODING 238
SWIDTH 280 0
DWIDTH 7 0
BBX 7 18 0 0
BITMAP
38
28
6C
44
C6
00
18
78
18
18
18
18
18
18
18
18
18
7E
ENDCHAR

STARTCHAR idieresis
ENCODING 239
SWIDTH 280 0
DWIDTH 7 0
BBX 7 17 0 0
BITMAP
CC
CC
CC
00
00
18
78
18
18
18
18
18
18
18
18
18
7E
ENDCHAR

STARTCHAR eth
ENCODING 240
SWIDTH 528 0
DWIDTH 13 0
BBX 11 18 1 0
BITMAP
1880
3D80
0E00
1F00
3300
0180
1FC0
30C0
6060
C060
C060
C060
C060
C060
C040
60C0
3180
1E00
ENDCHAR

STARTCHAR ntilde
ENCODING 241
SWIDTH 569 0
DWIDTH 14 0
BBX 13 18 1 0
BITMAP
0C40
1FC0
1180
0000
0000
0000
33C0
FFE0
3060
3060
3060
3060
3060
3060
3060
3060
3060
FCF8
ENDCHAR

STARTCHAR ograve
ENCODING 242
SWIDTH 539 0
DWIDTH 13 0
BBX 11 18 1 0
BITMAP
3800
1800
0C00
0400
0600
0000
1F00
3180
60C0
C060
C060
C060
C060
C060
C060
60C0
3180
1F00
ENDCHAR

STARTCHAR oacute
ENCODING 243
SWIDTH 539 0
DWIDTH 13 0
BBX 11 18 1 0
BITMAP
01C0
0180
0300
0200
0600
0000
1F00
3180
60C0
C060
C060
C060
C060
C060
C060
60C0
3180
1F00
ENDCHAR

STARTCHAR ocircumflex
ENCODING 244
SWIDTH 539 0
DWIDTH 13 0
BBX 11 18 1 0
BITMAP
0700
0500
0D80
0880
18C0
0000
1F00
3180
60C0
C060
C060
C060
C060
C060
C060
60C0
3180
1F00
ENDCHAR

STARTCHAR otilde
ENCODING 245
SWIDTH 539 0
DWIDTH 13 0
BBX 11 18 1 0
BITMAP
0C40
1FC0
1180
0000
0000
0000
1F00
3180
60C0
C060
C060
C060
C060
C060
C060
60C0
3180
1F00
ENDCHAR

STARTCHAR odieresis
ENCODING 246
SWIDTH 539 0
DWIDTH 13 0
BBX 11 17 1 0
BITMAP
1980
1980
1980
0000
0000
1F00
3180
60C0
C060
C060
C060
C060
C060
C060
60C0
3180
1F00
ENDCHAR

STARTCHAR divide
ENCODING 247
SWIDTH 833 0
DWIDTH 21 0
BBX 15 11 3 2
BITMAP
0380
0380
0380
0000
0000
FFFE
0000
0000
0380
0380
0380
ENDCHAR

STARTCHAR oslash
ENCODING 248
SWIDTH 539 0
DWIDTH 13 0
BBX 11 16 1 -2
BITMAP
0040
0040
1F80
3180
61C0
C260
C260
C460
CC60
C860
D060
70C0
3180
3F00
4000
4000
ENDCHAR

STARTCHAR ugrave
ENCODING 249
SWIDTH 569 0
DWIDTH 14 0
BBX 13 18 1 0
BITMAP
3800
1800
0C00
0400
0600
0000
3060
F1E0
3060
3060
3060
3060
3060
3060
3060
3060
38E0
1F78
ENDCHAR

STARTCHAR uacute
ENCODING 250
SWIDTH 569 0
DWIDTH 14 0
BBX 13 18 1 0
BITMAP
01C0
0180
0300
0200
0600
0000
3060
F1E0
3060
3060
3060
3060
3060
3060
3060
3060
38E0
1F78
ENDCHAR

STARTCHAR ucircumflex
ENCODING 251
SWIDTH 569 0
DWIDTH 14 0
BBX 13 18 1 0
BITMAP
0700
0500
0D80
0880
18C0
0000
3060
F1E0
3060
3060
3060
3060
3060
3060
3060
3060
38E0
1F78
ENDCHAR

STARTCHAR udieresis
ENCODING 252
SWIDTH 569 0
DWIDTH 14 0
BBX 13 17 1 0
BITMAP
1980
1980
1980
0000
0000
3060
F1E0
3060
3060
3060
3060
3060
3060
3060
3060
38E0
1F78
ENDCHAR

STARTCHAR yacute
ENCODING 253
SWIDTH 495 0
DWIDTH 13 0
BBX 13 24 0 -6
BITMAP
01C0
0180
0300
0200
0600
0000
FC78
3020
3020
3860
1840
1840
1CC0
0C80
0D80
0700
0700
0700
0200
0200
0400
0400
6800
7000
ENDCHAR

STARTCHAR thorn
ENCODING 254
SWIDTH 551 0
DWIDTH 14 0
BBX 12 24 1 -6
BITMAP
3000
F000
3000
3000
3000
3000
37C0
38E0
3060
3030
3030
3030
3030
3030
3020
3060
30C0
3F80
3000
3000
3000
3000
3000
FC00
ENDCHAR

STARTCHAR ydieresis
ENCODING 255
SWIDTH 495 0
DWIDTH 13 0
BBX 13 23 0 -6
BITMAP
1980
1980
1980
0000
0000
FC78
3020
3020
3860
1840
1840
1CC0
0C80
0D80
0700
0700
0700
0200
0200
0400
0400
6800
7000
ENDCHAR
ENDFONT
